# xmcd CD database file
#
# Track frame offsets:
#	150
#	19093
#	36024
#	55630
#
# Disc length: 992 seconds
#
# Revision: 0
# Processed by: cddbd v1.5.1PL2 Copyright (c) Steve Scherf et al.
# Submitted via: CDex 1.51
#
DISCID=2503de04
DTITLE=浅草ジンタ - 浅草音頭
DYEAR=2005
DGENRE=Rock
TTITLE0=浅草音頭
TTITLE1=浅草ロック?
TTITLE2=明日はどっちだ渡り鳥
TTITLE3=浅草音頭（カラオケ※コーラス入り）
EXTD=YEAR: 2005
EXTT0=
EXTT1=
EXTT2=
EXTT3=
PLAYORDER=
